{
  "accessors": [
    {
      "bufferView": 2,
      "componentType": 5126,
      "count": 1266,
      "max": [
        2.377711057662964,
        1.3365520238876343,
        4.3998918533325195
      ],
      "min": [
        -2.446830987930298,
        -1.3095320463180542,
        0.1305380016565323
      ],
      "type": "VEC3"
    },
    {
      "bufferView": 2,
      "byteOffset": 15192,
      "componentType": 5126,
      "count": 1266,
      "max": [
        0.9996339082717896,
        0.9945232272148132,
        0.9981108903884888
      ],
      "min": [
        -0.9994452595710754,
        -0.9998552203178406,
        -0.9998821020126343
      ],
      "type": "VEC3"
    },
    {
      "bufferView": 1,
      "componentType": 5126,
      "count": 1266,
      "max": [
        0.9980080127716064,
        0.9424809813499451
      ],
      "min": [
        0.0019920000340789557,
        0.0018810000037774444
      ],
      "type": "VEC2"
    },
    {
      "bufferView": 0,
      "componentType": 5125,
      "count": 3336,
      "type": "SCALAR"
    }
  ],
  "asset": {
    "extras": {
      "author": "kyle.river.withem (https://sketchfab.com/kyle.river.withem)",
      "license": "CC-BY-4.0 (http://creativecommons.org/licenses/by/4.0/)",
      "source": "https://sketchfab.com/3d-models/pc-computer-spongebob-squarepants-obstacle-ody-af37d1d83d604fbc9fe07fddf3fbd755",
      "title": "PC Computer - SpongeBob SquarePants Obstacle Ody"
    },
    "generator": "Sketchfab-15.19.0",
    "version": "2.0"
  },
  "bufferViews": [
    {
      "buffer": 0,
      "byteLength": 13344,
      "name": "floatBufferViews",
      "target": 34963
    },
    {
      "buffer": 0,
      "byteLength": 10128,
      "byteOffset": 13344,
      "byteStride": 8,
      "name": "floatBufferViews",
      "target": 34962
    },
    {
      "buffer": 0,
      "byteLength": 30384,
      "byteOffset": 23472,
      "byteStride": 12,
      "name": "floatBufferViews",
      "target": 34962
    }
  ],
  "buffers": [
    {
      "byteLength": 53856,
      "uri": "scene.bin"
    }
  ],
  "images": [
    {
      "uri": "textures/mrkrabs_baseColor.png"
    }
  ],
  "materials": [
    {
      "doubleSided": true,
      "name": "mrkrabs",
      "pbrMetallicRoughness": {
        "baseColorTexture": {
          "index": 0
        },
        "metallicFactor": 0.0
      }
    }
  ],
  "meshes": [
    {
      "name": "Object_0",
      "primitives": [
        {
          "attributes": {
            "NORMAL": 1,
            "POSITION": 0,
            "TEXCOORD_0": 2
          },
          "indices": 3,
          "material": 0,
          "mode": 4
        }
      ]
    }
  ],
  "nodes": [
    {
      "children": [
        1
      ],
      "matrix": [
        1.0,
        0.0,
        0.0,
        0.0,
        0.0,
        2.220446049250313e-16,
        -1.0,
        0.0,
        0.0,
        1.0,
        2.220446049250313e-16,
        0.0,
        0.0,
        0.0,
        0.0,
        1.0
      ],
      "name": "Sketchfab_model"
    },
    {
      "children": [
        2
      ],
      "name": "mrkrabs.obj.cleaner.materialmerger.gles"
    },
    {
      "mesh": 0,
      "name": "Object_2"
    }
  ],
  "samplers": [
    {
      "magFilter": 9729,
      "minFilter": 9987,
      "wrapS": 10497,
      "wrapT": 10497
    }
  ],
  "scene": 0,
  "scenes": [
    {
      "name": "Sketchfab_Scene",
      "nodes": [
        0
      ]
    }
  ],
  "textures": [
    {
      "sampler": 0,
      "source": 0
    }
  ]
}
